<svg t="1713874024363" class="icon" viewBox="0 0 1024 1024" version="1.1" xmlns="http://www.w3.org/2000/svg" p-id="6957" width="200" height="200"><path d="M230.4 652.8V217.6c0-70.4 57.6-128 128-128h435.2c70.4 0 128 57.6 128 128v435.2c0 70.4-57.6 128-128 128H358.4c-70.4 6.4-128-51.2-128-128z" fill="#FFFFFF" p-id="6958"></path><path d="M838.4 806.4h-512c-64 0-115.2-51.2-115.2-115.2v-512c0-64 51.2-115.2 115.2-115.2h512c64 0 115.2 51.2 115.2 115.2v512c0 64-51.2 115.2-115.2 115.2z m-512-697.6c-38.4 0-70.4 32-70.4 70.4v512c0 38.4 32 70.4 70.4 70.4h512c38.4 0 70.4-32 70.4-70.4v-512c0-38.4-32-70.4-70.4-70.4h-512z" fill="#272424" p-id="6959"></path><path d="M102.4 819.2V358.4c0-64 51.2-115.2 115.2-115.2h467.2c64 0 115.2 51.2 115.2 115.2v467.2c0 64-51.2 115.2-115.2 115.2H217.6c-64-6.4-115.2-57.6-115.2-121.6z" fill="#FFFFFF" p-id="6960"></path><path d="M710.4 960h-512c-64 0-115.2-51.2-115.2-115.2v-512c0-64 51.2-115.2 115.2-115.2h512c64 0 115.2 51.2 115.2 115.2v512c0 64-51.2 115.2-115.2 115.2z m-512-697.6c-38.4 0-70.4 32-70.4 70.4v512c0 38.4 32 70.4 70.4 70.4h512c38.4 0 70.4-32 70.4-70.4v-512c0-38.4-32-70.4-70.4-70.4h-512z" fill="#272424" p-id="6961"></path><path d="M300.8 416m-70.4 0a70.4 70.4 0 1 0 140.8 0 70.4 70.4 0 1 0-140.8 0Z" fill="#FFDB00" p-id="6962"></path><path d="M300.8 505.6c-51.2 0-96-44.8-96-96S249.6 320 300.8 320s96 44.8 96 96-44.8 89.6-96 89.6z m0-140.8c-25.6 0-44.8 25.6-44.8 51.2s19.2 44.8 44.8 44.8c25.6 0 44.8-19.2 44.8-44.8 0-25.6-19.2-51.2-44.8-51.2z" fill="#272424" p-id="6963"></path><path d="M115.2 819.2l6.4 89.6 89.6 38.4h230.4l256-12.8 70.4-12.8 32-76.8 12.8-185.6-166.4-108.8-44.8 25.6-115.2 115.2-70.4 38.4-115.2-83.2z" fill="#FFDB00" p-id="6964"></path><path d="M710.4 960h-512c-64 0-115.2-51.2-115.2-115.2v-512c0-64 51.2-115.2 115.2-115.2h512c64 0 115.2 51.2 115.2 115.2v512c0 64-51.2 115.2-115.2 115.2z m-512-697.6c-38.4 0-70.4 32-70.4 70.4v512c0 38.4 32 70.4 70.4 70.4h512c38.4 0 70.4-32 70.4-70.4v-512c0-38.4-32-70.4-70.4-70.4h-512z" fill="#272424" p-id="6965"></path><path d="M121.6 825.6c-6.4 0-12.8 0-19.2-6.4-6.4-6.4-6.4-25.6 0-32L256 633.6c25.6-25.6 70.4-25.6 96 0l64 64L576 544c19.2-19.2 44.8-32 76.8-25.6 25.6 0 57.6 12.8 76.8 32l76.8 76.8c6.4 6.4 6.4 25.6 0 32-6.4 6.4-25.6 6.4-32 0l-76.8-76.8c-12.8-12.8-25.6-19.2-44.8-19.2-12.8 0-32 6.4-38.4 12.8l-172.8 172.8c-6.4 6.4-12.8 6.4-19.2 6.4-6.4 0-12.8 0-19.2-6.4L320 672c-6.4-6.4-25.6-12.8-32 0l-147.2 147.2c-6.4 0-12.8 6.4-19.2 6.4z" fill="#272424" p-id="6966"></path></svg>