<svg xmlns="http://www.w3.org/2000/svg" xmlns:xlink="http://www.w3.org/1999/xlink" fill="none" version="1.1"
    width="10.000004768371582" height="16.999977111816406" viewBox="0 0 10.000004768371582 16.999977111816406">
    <g>
        <path
            d="M2.56066,0.439342C1.97488,-0.146447,1.02513,-0.146447,0.439342,0.439342C-0.146447,1.02513,-0.146447,1.97488,0.439342,2.56066C0.439342,2.56066,2.56066,0.439342,2.56066,0.439342C2.56066,0.439342,2.56066,0.439342,2.56066,0.439342ZM8.5,8.5C8.5,8.5,9.56066,9.56066,9.56066,9.56066C10.1465,8.97487,10.1465,8.02513,9.56066,7.43934C9.56066,7.43934,8.5,8.5,8.5,8.5C8.5,8.5,8.5,8.5,8.5,8.5ZM0.439342,14.4393C-0.146447,15.0251,-0.146447,15.9749,0.439342,16.5607C1.02513,17.1464,1.97488,17.1464,2.56066,16.5607C2.56066,16.5607,0.439342,14.4393,0.439342,14.4393C0.439342,14.4393,0.439342,14.4393,0.439342,14.4393ZM0.439342,2.56066C0.439342,2.56066,7.43934,9.56066,7.43934,9.56066C7.43934,9.56066,9.56066,7.43934,9.56066,7.43934C9.56066,7.43934,2.56066,0.439342,2.56066,0.439342C2.56066,0.439342,0.439342,2.56066,0.439342,2.56066C0.439342,2.56066,0.439342,2.56066,0.439342,2.56066ZM7.43934,7.43934C7.43934,7.43934,0.439342,14.4393,0.439342,14.4393C0.439342,14.4393,2.56066,16.5607,2.56066,16.5607C2.56066,16.5607,9.56066,9.56066,9.56066,9.56066C9.56066,9.56066,7.43934,7.43934,7.43934,7.43934C7.43934,7.43934,7.43934,7.43934,7.43934,7.43934Z"
            fill="currentColor" fill-opacity="1" />
    </g>
</svg>