<svg xmlns="http://www.w3.org/2000/svg" xmlns:xlink="http://www.w3.org/1999/xlink" fill="none" version="1.1"
    width="39.35301208496094" height="39.35302734375" viewBox="0 0 39.35301208496094 39.35302734375">
    <g>
        <g>
            <g>
                <path
                    d="M16.396970551757814,27.46509945526123C15.724691551757813,27.46509945526123,15.167190551757812,26.90759945526123,15.167190551757812,26.23529945526123C15.167190551757812,23.496999455261232,15.167190551757812,20.08639945526123,21.316100551757813,20.08639945526123C21.316100551757813,20.08639945526123,27.874890551757815,20.08639945526123,27.874890551757815,20.08639945526123C31.56429055175781,20.08639945526123,31.56429055175781,19.59449945526123,31.56429055175781,16.39701945526123C31.56429055175781,16.39701945526123,31.56429055175781,13.117609455261231,31.56429055175781,13.117609455261231C31.56429055175781,9.92017945526123,31.56429055175781,9.42825945526123,27.874890551757815,9.42825945526123C27.874890551757815,9.42825945526123,26.23519055175781,9.42825945526123,26.23519055175781,9.42825945526123C25.562990551757814,9.42825945526123,25.005440551757815,8.870759455261231,25.005440551757815,8.19847945526123C25.005440551757815,7.526200455261231,25.562990551757814,6.9686994552612305,26.23519055175781,6.9686994552612305C26.23519055175781,6.9686994552612305,27.874890551757815,6.9686994552612305,27.874890551757815,6.9686994552612305C33.61389055175781,6.9686994552612305,34.02379055175781,9.297089455261231,34.02379055175781,13.117609455261231C34.02379055175781,13.117609455261231,34.02379055175781,16.39701945526123,34.02379055175781,16.39701945526123C34.02379055175781,20.21749945526123,33.61389055175781,22.545899455261228,27.874890551757815,22.545899455261228C27.874890551757815,22.545899455261228,21.316100551757813,22.545899455261228,21.316100551757813,22.545899455261228C17.626750551757812,22.545899455261228,17.626750551757812,23.54619945526123,17.626750551757812,26.23529945526123C17.626750551757812,26.90759945526123,17.06925055175781,27.46509945526123,16.396970551757814,27.46509945526123C16.396970551757814,27.46509945526123,16.396970551757814,27.46509945526123,16.396970551757814,27.46509945526123Z"
                    fill="currentColor" fill-opacity="1" />
            </g>
            <g>
                <path
                    d="M19.676565237121583,14.34737413673401C19.676565237121583,14.34737413673401,13.117725237121583,14.34737413673401,13.117725237121583,14.34737413673401C12.593025237121582,14.34737413673401,12.117505237121582,14.003074136734009,11.953534237121582,13.51117413673401C10.822135237121582,10.08414413673401,10.822135237121582,6.3128141367340085,11.953534237121582,2.9022221367340086C12.117505237121582,2.393913136734009,12.593025237121582,2.049574136734009,13.117725237121583,2.049574136734009C13.117725237121583,2.049574136734009,19.676565237121583,2.049574136734009,19.676565237121583,2.049574136734009C20.201265237121582,2.049574136734009,20.67678523712158,2.393913136734009,20.840755237121584,2.8858251367340086C21.988585237121583,6.3128141367340085,21.988585237121583,10.08414413673401,20.840755237121584,13.494774136734009C20.67678523712158,14.003074136734009,20.21766523712158,14.34737413673401,19.676565237121583,14.34737413673401C19.676565237121583,14.34737413673401,19.676565237121583,14.34737413673401,19.676565237121583,14.34737413673401ZM14.035965237121582,11.88782413673401C14.035965237121582,11.88782413673401,18.774725237121583,11.88782413673401,18.774725237121583,11.88782413673401C19.414205237121582,9.477454136734009,19.414205237121582,6.919504136734009,18.774725237121583,4.5091341367340085C18.774725237121583,4.5091341367340085,14.035965237121582,4.5091341367340085,14.035965237121582,4.5091341367340085C13.396475237121582,6.919504136734009,13.396475237121582,9.477454136734009,14.035965237121582,11.88782413673401C14.035965237121582,11.88782413673401,14.035965237121582,11.88782413673401,14.035965237121582,11.88782413673401Z"
                    fill="currentColor" fill-opacity="1" />
            </g>
            <g>
                <path
                    d="M13.117553715820312,14.34737413673401C13.117553715820312,14.34737413673401,11.477843715820313,14.34737413673401,11.477843715820313,14.34737413673401C7.509743715820313,14.34737413673401,5.3289337158203125,12.16657413673401,5.3289337158203125,8.19848413673401C5.3289337158203125,4.230384136734009,7.509743715820313,2.049574136734009,11.477843715820313,2.049574136734009C11.477843715820313,2.049574136734009,13.117553715820312,2.049574136734009,13.117553715820312,2.049574136734009C13.543873715820313,2.049574136734009,13.937403715820313,2.262736136734009,14.166963715820312,2.639869136734009C14.396523715820312,3.0006051367340087,14.412923715820313,3.4597241367340086,14.216153715820312,3.8368541367340088C12.740413715820313,6.771934136734009,12.740413715820313,9.64142413673401,14.216153715820312,12.576474136734008C14.412923715820313,12.953674136734008,14.380123715820313,13.41277413673401,14.166963715820312,13.77347413673401C13.937403715820313,14.134174136734009,13.543873715820313,14.34737413673401,13.117553715820312,14.34737413673401C13.117553715820312,14.34737413673401,13.117553715820312,14.34737413673401,13.117553715820312,14.34737413673401ZM11.281073715820312,4.5091341367340085C8.837913715820314,4.574724136734009,7.788493715820312,5.673334136734009,7.788493715820312,8.19848413673401C7.788493715820312,10.707234136734009,8.837913715820314,11.822234136734009,11.264683715820311,11.88782413673401C10.444823715820313,9.428264136734008,10.444823715820313,6.968694136734009,11.281073715820312,4.5091341367340085C11.281073715820312,4.5091341367340085,11.281073715820312,4.5091341367340085,11.281073715820312,4.5091341367340085Z"
                    fill="currentColor" fill-opacity="1" />
            </g>
            <g>
                <path
                    d="M21.316083579101562,14.34737413673401C21.316083579101562,14.34737413673401,19.67637357910156,14.34737413673401,19.67637357910156,14.34737413673401C19.250046579101564,14.34737413673401,18.85651557910156,14.134274136734009,18.626956579101563,13.757074136734008C18.39739727910156,13.396374136734009,18.38100067910156,12.93727413673401,18.577765579101563,12.56007413673401C20.03710357910156,9.625024136734009,20.03710357910156,6.755534136734009,18.577765579101563,3.820454136734009C18.38100067910156,3.4433241367340086,18.413794379101564,2.9842081367340088,18.626956579101563,2.6234721367340086C18.85651557910156,2.262736136734009,19.250046579101564,2.049574136734009,19.67637357910156,2.049574136734009C19.67637357910156,2.049574136734009,21.316083579101562,2.049574136734009,21.316083579101562,2.049574136734009C25.284173579101562,2.049574136734009,27.464983579101563,4.230384136734009,27.464983579101563,8.19848413673401C27.464983579101563,12.16657413673401,25.284173579101562,14.34737413673401,21.316083579101562,14.34737413673401C21.316083579101562,14.34737413673401,21.316083579101562,14.34737413673401,21.316083579101562,14.34737413673401ZM21.512843579101563,4.5091341367340085C22.332703579101562,6.968694136734009,22.332703579101562,9.428264136734008,21.512843579101563,11.88782413673401C23.956013579101562,11.822234136734009,24.989023579101563,10.72363413673401,24.989023579101563,8.19848413673401C25.005423579101564,5.673334136734009,23.956013579101562,4.574724136734009,21.512843579101563,4.5091341367340085C21.512843579101563,4.5091341367340085,21.512843579101563,4.5091341367340085,21.512843579101563,4.5091341367340085Z"
                    fill="currentColor" fill-opacity="1" />
            </g>
            <g>
                <path
                    d="M17.21706574707031,37.303417141723635C17.21706574707031,37.303417141723635,15.577355747070312,37.303417141723635,15.577355747070312,37.303417141723635C13.888455747070314,37.303417141723635,11.888015747070312,36.66391714172363,11.888015747070312,33.61408714172363C11.888015747070312,33.61408714172363,11.888015747070312,28.694957141723634,11.888015747070312,28.694957141723634C11.888015747070312,25.645103141723634,13.888455747070314,25.005617141723633,15.577355747070312,25.005617141723633C15.577355747070312,25.005617141723633,17.21706574707031,25.005617141723633,17.21706574707031,25.005617141723633C18.90596574707031,25.005617141723633,20.906415747070312,25.645103141723634,20.906415747070312,28.694957141723634C20.906415747070312,28.694957141723634,20.906415747070312,33.61408714172363,20.906415747070312,33.61408714172363C20.906415747070312,36.66391714172363,18.90596574707031,37.303417141723635,17.21706574707031,37.303417141723635C17.21706574707031,37.303417141723635,17.21706574707031,37.303417141723635,17.21706574707031,37.303417141723635ZM15.577355747070312,27.465177141723633C14.347575747070312,27.465177141723633,14.347575747070312,27.825917141723632,14.347575747070312,28.694957141723634C14.347575747070312,28.694957141723634,14.347575747070312,33.61408714172363,14.347575747070312,33.61408714172363C14.347575747070312,34.48313714172363,14.347575747070312,34.843867141723635,15.577355747070312,34.843867141723635C15.577355747070312,34.843867141723635,17.21706574707031,34.843867141723635,17.21706574707031,34.843867141723635C18.446845747070313,34.843867141723635,18.446845747070313,34.48313714172363,18.446845747070313,33.61408714172363C18.446845747070313,33.61408714172363,18.446845747070313,28.694957141723634,18.446845747070313,28.694957141723634C18.446845747070313,27.825917141723632,18.446845747070313,27.465177141723633,17.21706574707031,27.465177141723633C17.21706574707031,27.465177141723633,15.577355747070312,27.465177141723633,15.577355747070312,27.465177141723633C15.577355747070312,27.465177141723633,15.577355747070312,27.465177141723633,15.577355747070312,27.465177141723633Z"
                    fill="currentColor" fill-opacity="1" />
            </g>
            <g style="opacity:0;"></g>
        </g>
    </g>
</svg>