<svg t="1719846719694" class="icon" viewBox="0 0 1029 1024" version="1.1" xmlns="http://www.w3.org/2000/svg"
    p-id="59539" width="200" height="200">
    <path
        d="M902.487684 398.830751l-271.278616-285.86624L714.640039 29.431171a112.606218 112.606218 0 0 1 158.672398 7.575327l112.247926 112.606218a112.606218 112.606218 0 0 1 7.575327 158.672398zM307.619745 994.415275a112.606218 112.606218 0 0 1-158.672398-7.575327L36.699421 874.489653a112.606218 112.606218 0 0 1-7.575328-158.672398l529.761072-530.375288 271.278617 285.917425zM181.60315 358.701989C144.545467 245.686294 114.397711 215.9992 0.000031 179.555733c114.397681-36.750575 144.494252-66.540038 181.603119-179.146256 37.108867 113.015695 67.205438 142.651605 181.654303 179.146256-114.448865 36.341098-144.443067 66.130561-181.654303 179.146256z m665.40038 306.647206c37.108867 113.015695 67.205438 142.651605 181.654303 179.146256-114.448865 36.69939-144.443067 66.540038-181.654303 179.504549-37.057683-113.015695-67.205438-142.702789-181.603119-179.146256 114.397681-36.852944 144.494252-66.488853 181.603119-179.453364z"
        p-id="59540" fill="currentColor"></path>
</svg>