<svg xmlns="http://www.w3.org/2000/svg" xmlns:xlink="http://www.w3.org/1999/xlink" fill="none" version="1.1" width="32.66650390625" height="14" viewBox="0 0 32.66650390625 14"><g><g><path d="M32.6667,11.7297C32.6667,12.991,31.7198,14,30.5362,14C30.5362,14,24.3816,14,24.3816,14C24.3816,14,16.3333,14,16.3333,14C16.3333,14,8.04831,14,8.04831,14C8.04831,14,2.13043,14,2.13043,14C0.94686,13.7477,0,12.7387,0,11.7297C0,11.7297,0,3.65766,0,3.65766C0,1.89189,1.89372,0.882883,3.31401,1.89189C3.31401,1.89189,6.86473,4.91892,6.86473,4.91892C7.57488,5.42342,8.52174,5.42342,9.23188,4.91892C9.23188,4.91892,14.913,0.378378,14.913,0.378378C15.6232,-0.126126,16.57,-0.126126,17.2802,0.378378C17.2802,0.378378,23.1981,4.91892,23.1981,4.91892C23.9082,5.42342,24.8551,5.42342,25.5652,4.91892C25.5652,4.91892,29.3527,1.89189,29.3527,1.89189C30.7729,0.882883,32.6667,1.89189,32.6667,3.65766C32.6667,3.65766,32.6667,11.7297,32.6667,11.7297C32.6667,11.7297,32.6667,11.7297,32.6667,11.7297Z" fill="#F6CD39" fill-opacity="1"/></g></g></svg>