<svg xmlns="http://www.w3.org/2000/svg" xmlns:xlink="http://www.w3.org/1999/xlink" fill="none" version="1.1" width="52.61474609375" height="52.61474609375" viewBox="0 0 52.61474609375 52.61474609375"><g><g><path d="M33.45414116287232,48.77815854187011C33.45414116287232,48.77815854187011,19.160541162872313,48.77815854187011,19.160541162872313,48.77815854187011C8.396421162872315,48.77815854187011,3.7926411628723145,44.17435854187012,3.7926411628723145,33.41035854187012C3.7926411628723145,33.41035854187012,3.7926411628723145,33.12535854187011,3.7926411628723145,33.12535854187011C3.7926411628723145,23.391608541870117,7.629131162872314,18.700131541870118,16.222841162872314,17.888989101870116C17.099741162872313,17.823220741870117,17.932841162872315,18.480904541870117,18.020541162872313,19.37973854187012C18.108241162872314,20.27856854187012,17.450541162872312,21.089718541870116,16.529741162872313,21.17740854187012C9.646021162872314,21.813168541870116,7.081061162872315,25.057738541870116,7.081061162872315,33.147258541870116C7.081061162872315,33.147258541870116,7.081061162872315,33.43225854187012,7.081061162872315,33.43225854187012C7.081061162872315,42.354858541870115,10.237941162872314,45.51165854187012,19.160541162872313,45.51165854187012C19.160541162872313,45.51165854187012,33.45414116287232,45.51165854187012,33.45414116287232,45.51165854187012C42.376741162872314,45.51165854187012,45.533641162872314,42.354858541870115,45.533641162872314,33.43225854187012C45.533641162872314,33.43225854187012,45.533641162872314,33.147258541870116,45.533641162872314,33.147258541870116C45.533641162872314,25.013888541870116,42.92484116287231,21.769318541870117,35.909541162872316,21.17740854187012C35.01064116287232,21.089718541870116,34.33104116287231,20.300498541870116,34.418741162872315,19.401658541870116C34.506441162872314,18.502828541870116,35.27374116287231,17.82322124187012,36.19454116287231,17.910912341870116C44.91974116287231,18.656286541870116,48.82204116287232,23.36968854187012,48.82204116287232,33.16915854187012C48.82204116287232,33.16915854187012,48.82204116287232,33.454158541870115,48.82204116287232,33.454158541870115C48.82204116287232,44.17435854187012,44.21824116287232,48.77815854187011,33.45414116287232,48.77815854187011C33.45414116287232,48.77815854187011,33.45414116287232,48.77815854187011,33.45414116287232,48.77815854187011Z" fill="#29323B" fill-opacity="1"/></g><g><path d="M26.307337899169923,34.265234375C25.40850289916992,34.265234375,24.663127899169922,33.519834375,24.663127899169922,32.621034375C24.663127899169922,32.621034375,24.663127899169922,4.384444375,24.663127899169922,4.384444375C24.663127899169922,3.485609375,25.40850289916992,2.740234375,26.307337899169923,2.740234375C27.206167899169923,2.740234375,27.95154789916992,3.485609375,27.95154789916992,4.384444375C27.95154789916992,4.384444375,27.95154789916992,32.621034375,27.95154789916992,32.621034375C27.95154789916992,33.541734375000004,27.206167899169923,34.265234375,26.307337899169923,34.265234375C26.307337899169923,34.265234375,26.307337899169923,34.265234375,26.307337899169923,34.265234375Z" fill="#29323B" fill-opacity="1"/></g><g><path d="M26.307336242065432,36.72068978271484C25.89080624206543,36.72068978271484,25.47426624206543,36.56718978271484,25.14542624206543,36.23838978271485C25.14542624206543,36.23838978271485,17.80129624206543,28.894229782714845,17.80129624206543,28.894229782714845C17.16553624206543,28.258469782714844,17.16553624206543,27.206169782714845,17.80129624206543,26.570409782714844C18.43705624206543,25.934649782714843,19.48935624206543,25.934649782714843,20.12511624206543,26.570409782714844C20.12511624206543,26.570409782714844,26.307336242065432,32.75262978271484,26.307336242065432,32.75262978271484C26.307336242065432,32.75262978271484,32.48957624206543,26.570409782714844,32.48957624206543,26.570409782714844C33.12527624206543,25.934649782714843,34.17757624206543,25.934649782714843,34.81337624206543,26.570409782714844C35.449176242065434,27.206169782714845,35.449176242065434,28.258469782714844,34.81337624206543,28.894229782714845C34.81337624206543,28.894229782714845,27.46927624206543,36.23838978271485,27.46927624206543,36.23838978271485C27.140396242065428,36.56718978271484,26.72386624206543,36.72068978271484,26.307336242065432,36.72068978271484C26.307336242065432,36.72068978271484,26.307336242065432,36.72068978271484,26.307336242065432,36.72068978271484Z" fill="#29323B" fill-opacity="1"/></g><g style="opacity:0;"></g></g></svg>