<svg t="1720276681329" class="icon" viewBox="0 0 1024 1024" version="1.1" xmlns="http://www.w3.org/2000/svg" p-id="8593"
    width="200" height="200">
    <path
        d="M776.533333 896H247.466667C181.333333 896 128 842.666667 128 776.533333v-151.466666c0-23.466667 19.2-42.666667 42.666667-42.666667s42.666667 19.2 42.666666 42.666667v151.466666c0 19.2 14.933333 34.133333 34.133334 34.133334h531.2c19.2 0 34.133333-14.933333 34.133333-34.133334v-151.466666c0-23.466667 19.2-42.666667 42.666667-42.666667s42.666667 19.2 42.666666 42.666667v151.466666c-2.133333 66.133333-55.466667 119.466667-121.6 119.466667z"
        p-id="8594"></path>
    <path
        d="M512 667.733333c-10.666667 0-21.333333-4.266667-29.866667-12.8l-189.866666-189.866666c-17.066667-17.066667-17.066667-42.666667 0-59.733334 17.066667-17.066667 42.666667-17.066667 59.733333 0l160 160 160-160c17.066667-17.066667 42.666667-17.066667 59.733333 0 17.066667 17.066667 17.066667 42.666667 0 59.733334l-189.866666 189.866666c-8.533333 8.533333-19.2 12.8-29.866667 12.8z"
        p-id="8595"></path>
    <path
        d="M512 667.733333c-23.466667 0-42.666667-19.2-42.666667-42.666666V170.666667c0-23.466667 19.2-42.666667 42.666667-42.666667s42.666667 19.2 42.666667 42.666667v454.4c0 23.466667-19.2 42.666667-42.666667 42.666666z"
        p-id="8596"></path>
</svg>