<svg width="22" height="22" viewBox="0 0 22 22" fill="none" xmlns="http://www.w3.org/2000/svg">
<path d="M4.5918 21.4932C3.34896 21.4932 2.40186 21.1712 1.75049 20.5273C1.10661 19.891 0.784668 18.9588 0.784668 17.731V4.08594C0.784668 2.85807 1.10661 1.92594 1.75049 1.28955C2.40186 0.645671 3.34896 0.32373 4.5918 0.32373H18.1582C19.401 0.32373 20.3444 0.645671 20.9883 1.28955C21.6396 1.92594 21.9653 2.85807 21.9653 4.08594V17.731C21.9653 18.9588 21.6396 19.891 20.9883 20.5273C20.3444 21.1712 19.401 21.4932 18.1582 21.4932H4.5918ZM6.19775 3.64795C5.75602 3.64795 5.38167 3.80892 5.07471 4.13086C4.77523 4.44531 4.62549 4.84961 4.62549 5.34375C4.62549 5.74056 4.71533 6.11117 4.89502 6.45557C5.08219 6.79997 5.31429 7.12191 5.59131 7.42139C5.87581 7.71338 6.16406 7.97168 6.45605 8.19629C6.75553 8.4209 7.01009 8.60807 7.21973 8.75781C7.27214 8.78776 7.32454 8.81771 7.37695 8.84766C7.43685 8.87012 7.48551 8.88135 7.52295 8.88135C7.57536 8.88135 7.62777 8.87012 7.68018 8.84766C7.73258 8.81771 7.78125 8.78776 7.82617 8.75781C8.04329 8.62305 8.29785 8.44336 8.58984 8.21875C8.88184 7.99414 9.16634 7.73584 9.44336 7.44385C9.72038 7.14437 9.94873 6.81868 10.1284 6.4668C10.3156 6.11491 10.4092 5.74056 10.4092 5.34375C10.4092 4.84961 10.2594 4.44531 9.95996 4.13086C9.66048 3.80892 9.28239 3.64795 8.82568 3.64795C8.5262 3.64795 8.26416 3.73031 8.03955 3.89502C7.82243 4.05225 7.64648 4.24691 7.51172 4.479C7.39193 4.24691 7.21973 4.05225 6.99512 3.89502C6.77051 3.73031 6.50472 3.64795 6.19775 3.64795ZM5.38916 13.8789H16.3838C16.5934 13.8789 16.7694 13.8078 16.9116 13.6655C17.0539 13.5233 17.125 13.3436 17.125 13.1265C17.125 12.9168 17.0539 12.7409 16.9116 12.5986C16.7694 12.4564 16.5934 12.3853 16.3838 12.3853H5.38916C5.17204 12.3853 4.98861 12.4564 4.83887 12.5986C4.69661 12.7409 4.62549 12.9168 4.62549 13.1265C4.62549 13.3436 4.69661 13.5233 4.83887 13.6655C4.98861 13.8078 5.17204 13.8789 5.38916 13.8789ZM5.38916 17.7422H13.6211C13.8457 17.7422 14.0291 17.6711 14.1714 17.5288C14.3136 17.3866 14.3848 17.2106 14.3848 17.001C14.3848 16.7913 14.3136 16.6117 14.1714 16.4619C14.0291 16.3122 13.8457 16.2373 13.6211 16.2373H5.38916C5.17204 16.2373 4.98861 16.3122 4.83887 16.4619C4.69661 16.6117 4.62549 16.7913 4.62549 17.001C4.62549 17.2106 4.69661 17.3866 4.83887 17.5288C4.98861 17.6711 5.17204 17.7422 5.38916 17.7422Z" fill="#007BFE"/>
</svg>
