<svg xmlns="http://www.w3.org/2000/svg" xmlns:xlink="http://www.w3.org/1999/xlink" fill="none" version="1.1"
    width="26.7310791015625" height="26.73095703125" viewBox="0 0 26.7310791015625 26.73095703125">
    <g>
        <g>
            <g>
                <g>
                    <path
                        d="M13.365452428627014,24.113707219314577C13.020252428627014,24.113707219314577,12.686052428627015,24.069107219314574,12.407552428627014,23.968907219314577C8.152902428627014,22.509807219314574,1.3921524286270142,17.330707219314576,1.3921524286270142,9.678957219314576C1.3921524286270142,5.780677219314575,4.544202428627014,2.617507219314575,8.420212428627014,2.617507219314575C10.302562428627015,2.617507219314575,12.062252428627014,3.352611219314575,13.365452428627014,4.666887219314575C14.668652428627015,3.352611219314575,16.428452428627015,2.617507219314575,18.310752428627016,2.617507219314575C22.186752428627013,2.617507219314575,25.338752428627014,5.791817219314575,25.338752428627014,9.678957219314576C25.338752428627014,17.341807219314575,18.578052428627014,22.509807219314574,14.323352428627015,23.968907219314577C14.044852428627014,24.069107219314574,13.710752428627014,24.113707219314577,13.365452428627014,24.113707219314577C13.365452428627014,24.113707219314577,13.365452428627014,24.113707219314577,13.365452428627014,24.113707219314577ZM8.420212428627014,4.288197219314576C5.468652428627014,4.288197219314576,3.062842428627014,6.7051272193145754,3.062842428627014,9.678957219314576C3.062842428627014,17.286107219314573,10.380512428627014,21.518607219314575,12.953352428627014,22.398507219314574C13.153852428627014,22.465307219314575,13.588252428627014,22.465307219314575,13.788752428627014,22.398507219314574C16.350452428627015,21.518607219314575,23.679252428627013,17.297307219314575,23.679252428627013,9.678957219314576C23.679252428627013,6.7051272193145754,21.273452428627014,4.288197219314576,18.321852428627015,4.288197219314576C16.628952428627017,4.288197219314576,15.058452428627014,5.078987219314575,14.044852428627014,6.448957219314575C13.733052428627014,6.872197219314575,13.020252428627014,6.872197219314575,12.708352428627014,6.448957219314575C11.672452428627015,5.0678572193145754,10.113172428627013,4.288197219314576,8.420212428627014,4.288197219314576C8.420212428627014,4.288197219314576,8.420212428627014,4.288197219314576,8.420212428627014,4.288197219314576Z"
                        fill="currentColor" fill-opacity="1" />
                </g>
                <g style="opacity:0;"></g>
            </g>
        </g>
    </g>
</svg>