<svg xmlns="http://www.w3.org/2000/svg" xmlns:xlink="http://www.w3.org/1999/xlink" fill="none" version="1.1" width="21" height="15" viewBox="0 0 21 15"><defs><clipPath id="master_svg0_0_17640"><rect x="0" y="0" width="21" height="15" rx="0"/></clipPath></defs><g clip-path="url(#master_svg0_0_17640)"><g><path d="M15.633329618530274,3.86364C16.728699618530275,3.86364,17.616669618530274,2.99873,17.616669618530274,1.93182C17.616669618530274,0.864905,16.728699618530275,0,15.633329618530274,0C14.537967618530274,0,13.649999618530273,0.864905,13.649999618530273,1.93182C13.649999618530273,2.99873,14.537967618530274,3.86364,15.633329618530274,3.86364C15.633329618530274,3.86364,15.633329618530274,3.86364,15.633329618530274,3.86364Z" fill="#9ADCEC" fill-opacity="1"/></g><g><path d="M20.533373306921124,9.886360953674316C20.533373306921124,9.886360953674316,18.666673306921126,6.818180953674316,18.666673306921126,6.818180953674316C17.266673306921124,4.545450953674317,13.999973306921124,4.545450953674317,12.599973306921125,6.818180953674316C12.366673306921124,7.2727309536743165,11.666673306921124,7.2727309536743165,11.433373306921125,6.818180953674316C11.433373306921125,6.818180953674316,9.916663306921125,4.204550953674317,9.916663306921125,4.204550953674317C8.516663306921124,1.9318179536743165,5.2500033069211245,1.9318179536743165,3.8500033069211246,4.204550953674317C3.8500033069211246,4.204550953674317,0.46666730692112446,9.886360953674316,0.46666730692112446,9.886360953674316C-0.9333326930788756,12.159090953674317,0.8166673069211244,15.000000953674316,3.5000033069211245,15.000000953674316C3.5000033069211245,15.000000953674316,5.366663306921124,15.000000953674316,5.366663306921124,15.000000953674316C5.366663306921124,15.000000953674316,10.149973306921124,15.000000953674316,10.149973306921124,15.000000953674316C10.149973306921124,15.000000953674316,13.649973306921124,15.000000953674316,13.649973306921124,15.000000953674316C13.649973306921124,15.000000953674316,15.983373306921123,15.000000953674316,15.983373306921123,15.000000953674316C15.983373306921123,15.000000953674316,17.499973306921124,15.000000953674316,17.499973306921124,15.000000953674316C20.183373306921123,15.000000953674316,21.933373306921123,12.159090953674317,20.533373306921124,9.886360953674316C20.533373306921124,9.886360953674316,20.533373306921124,9.886360953674316,20.533373306921124,9.886360953674316Z" fill="#9ADCEC" fill-opacity="1"/></g></g></svg>