<svg width="30" height="24" viewBox="0 0 30 24" fill="none" xmlns="http://www.w3.org/2000/svg">
    <path
        d="M14.6489 14.5869C15.2853 14.5869 15.8319 14.3548 16.2886 13.8906C16.7528 13.4264 16.9849 12.8687 16.9849 12.2173C16.9849 11.798 16.88 11.4124 16.6704 11.0605C16.4608 10.7012 16.1763 10.4167 15.8169 10.207C15.465 9.98991 15.0757 9.88135 14.6489 9.88135C13.9976 9.88135 13.4435 10.1134 12.9868 10.5776C12.5301 11.0343 12.3018 11.5809 12.3018 12.2173C12.3018 12.8687 12.5301 13.4264 12.9868 13.8906C13.4435 14.3548 13.9976 14.5869 14.6489 14.5869ZM10.1792 21.2466H25.082C25.5687 21.2466 25.943 21.1193 26.2051 20.8647C26.4671 20.6177 26.5981 20.2358 26.5981 19.7192V18.147L22.5552 14.3511C22.353 14.1639 22.1284 14.0216 21.8813 13.9243C21.6343 13.827 21.3797 13.7783 21.1177 13.7783C20.8556 13.7783 20.6048 13.8232 20.3652 13.9131C20.1257 14.0029 19.8973 14.1452 19.6802 14.3398L15.3452 18.1919L13.6045 16.6196C13.4023 16.4325 13.1927 16.2977 12.9756 16.2153C12.7585 16.1255 12.5376 16.0806 12.313 16.0806C12.1034 16.0806 11.8937 16.1255 11.6841 16.2153C11.4744 16.3052 11.2686 16.4325 11.0664 16.5972L8.66309 18.7422V19.7192C8.66309 20.2358 8.79411 20.6177 9.05615 20.8647C9.3182 21.1193 9.69255 21.2466 10.1792 21.2466ZM9.97705 23.7397C8.73421 23.7397 7.78711 23.4178 7.13574 22.7739C6.49186 22.1375 6.16992 21.2017 6.16992 19.9663V9.24121C6.16992 8.00586 6.49186 7.06999 7.13574 6.43359C7.78711 5.78971 8.73421 5.46777 9.97705 5.46777H25.2954C26.5308 5.46777 27.4741 5.78971 28.1255 6.43359C28.7769 7.07747 29.1025 8.01335 29.1025 9.24121V19.9663C29.1025 21.2017 28.7769 22.1375 28.1255 22.7739C27.4741 23.4178 26.5308 23.7397 25.2954 23.7397H9.97705ZM9.97705 3.76074C8.83154 3.76074 7.84701 3.98161 7.02344 4.42334C6.19987 4.85758 5.56348 5.48649 5.11426 6.31006C4.67253 7.12614 4.45166 8.10319 4.45166 9.24121V18.293H4.11475C2.89437 18.278 1.96973 17.9523 1.34082 17.3159C0.711914 16.672 0.397461 15.7399 0.397461 14.5195V3.79443C0.397461 2.55908 0.719401 1.62321 1.36328 0.986816C2.01465 0.342936 2.96175 0.0209961 4.20459 0.0209961H19.5229C20.7284 0.0209961 21.653 0.327962 22.2969 0.941895C22.9408 1.55583 23.2814 2.45052 23.3188 3.62598V3.76074H9.97705Z"
        fill="currentColor" />
</svg>