<svg xmlns="http://www.w3.org/2000/svg" xmlns:xlink="http://www.w3.org/1999/xlink" fill="none" version="1.1"
    width="37.5" height="33.37502670288086" viewBox="0 0 37.5 33.37502670288086">
    <g>
        <path
            d="M27.075,0C23.6813,0,20.6437,1.65,18.75,4.18125C16.8563,1.65,13.8187,0,10.425,0C4.66875,0,0,4.6875,0,10.4812C0,12.7125,0.35625,14.775,0.975,16.6875C3.9375,26.0625,13.0688,31.6688,17.5875,33.2062C18.225,33.4313,19.275,33.4313,19.9125,33.2062C24.4312,31.6688,33.5625,26.0625,36.525,16.6875C37.1437,14.775,37.5,12.7125,37.5,10.4812C37.5,4.6875,32.8312,0,27.075,0C27.075,0,27.075,0,27.075,0Z"
            fill="currentColor" fill-opacity="1" />
    </g>
</svg>