<svg xmlns="http://www.w3.org/2000/svg" xmlns:xlink="http://www.w3.org/1999/xlink" fill="none" version="1.1" width="11.328335762023926" height="14.417924880981445" viewBox="0 0 11.328335762023926 14.417924880981445"><g><path d="M5.68146,0C2.36196,0,0,2.76464,0,5.72216C0,6.68657,0.255347,7.65098,0.76604,8.55109C0.76604,8.55109,3.38334,13.116,3.38334,13.116C4.40473,14.8519,6.95819,14.8519,7.91574,13.116C7.91574,13.116,10.533,8.55109,10.533,8.55109C12.7673,4.75775,10.0224,0,5.68146,0C5.68146,0,5.68146,0,5.68146,0ZM8.04342,6.49369C8.04342,6.49369,7.78807,6.75086,7.78807,6.75086C7.78807,6.75086,6.57517,7.97245,6.57517,7.97245C6.06448,8.4868,5.29844,8.4868,4.78775,7.97245C4.78775,7.97245,3.3195,6.49369,3.3195,6.49369C2.74497,5.91504,2.74497,4.95063,3.3195,4.37199C3.57485,4.11481,3.95787,3.92193,4.34089,3.92193C4.72391,3.92193,5.10693,4.05052,5.36228,4.37199C5.48995,4.50057,5.68146,4.50057,5.87297,4.37199C6.4475,3.79334,7.40505,3.79334,7.97958,4.37199C8.61794,5.01493,8.61794,5.91504,8.04342,6.49369C8.04342,6.49369,8.04342,6.49369,8.04342,6.49369Z" fill="#222222" fill-opacity="1"/></g></svg>