<svg xmlns="http://www.w3.org/2000/svg" xmlns:xlink="http://www.w3.org/1999/xlink" fill="none" version="1.1" width="19" height="19" viewBox="0 0 19 19"><defs><clipPath id="master_svg0_0_17632"><rect x="0" y="0" width="19" height="19" rx="0"/></clipPath></defs><g clip-path="url(#master_svg0_0_17632)"><g><path d="M9.5,19C4.2337,19,0,14.7663,0,9.5C0,4.2337,4.2337,0,9.5,0C9.5,0,14.8696,0,14.8696,0C17.1413,0,19,1.8587,19,4.13043C19,4.13043,19,9.5,19,9.5C19,14.7663,14.7663,19,9.5,19C9.5,19,9.5,19,9.5,19Z" fill="#FF5D97" fill-opacity="1"/></g><g><path d="M13.42374625,12.390926562499999C13.42374625,12.390926562499999,13.01070625,12.803966562500001,13.01070625,12.803966562500001C13.01070625,12.803966562500001,11.04874625,14.765926562499999,11.04874625,14.765926562499999C10.22265625,15.5920065625,8.88026625,15.5920065625,8.05417625,14.765926562499999C8.05417625,14.765926562499999,5.57591725,12.390926562499999,5.57591725,12.390926562499999C4.64656925,11.4615765625,4.64656925,9.8093965625,5.57591725,8.8800525625C6.0922262499999995,8.3637485625,6.71178625,8.1572265625,7.33135625,8.1572265625C7.950916250000001,8.1572265625,8.57048625,8.3637485625,9.08678625,8.8800525625C9.29330625,9.0865745625,9.706356249999999,9.0865745625,9.91287625,8.8800525625C10.84222625,7.9507055625,12.494396250000001,7.9507055625,13.42374625,8.8800525625C14.35309625,9.8093965625,14.35309625,11.3583165625,13.42374625,12.390926562499999C13.42374625,12.390926562499999,13.42374625,12.390926562499999,13.42374625,12.390926562499999Z" fill="#FFFFFF" fill-opacity="1"/></g></g></svg>