<svg xmlns="http://www.w3.org/2000/svg" xmlns:xlink="http://www.w3.org/1999/xlink" fill="none" version="1.1" width="36.35693359375" height="47.666748046875" viewBox="0 0 36.35693359375 47.666748046875"><g><g><path d="M33.137362216186524,0.000048828122089616954C33.137362216186524,0.000048828122089616954,11.886202216186524,0.000048828122089616954,11.886202216186524,0.000048828122089616954C10.115732216186524,0.000048828122089616954,8.666662216186523,1.4477488281220896,8.666662216186523,3.2195888281220895C8.666662216186523,3.2195888281220895,8.666662216186523,44.44584882812209,8.666662216186523,44.44584882812209C8.666662216186522,46.21764882812209,10.115732216186524,47.66674882812209,11.886202216186524,47.66674882812209C11.886202216186524,47.66674882812209,33.137362216186524,47.66674882812209,33.137362216186524,47.66674882812209C34.90786221618652,47.66674882812209,36.35686221618653,46.22034882812209,36.35686221618653,44.44714882812209C36.35686221618653,44.44714882812209,36.35686221618653,3.2195888281220895,36.35686221618653,3.2195888281220895C36.35686221618653,1.4477488281220896,34.90786221618652,0.000048828122089616954,33.137362216186524,0.000048828122089616954C33.137362216186524,0.000048828122089616954,33.137362216186524,0.000048828122089616954,33.137362216186524,0.000048828122089616954ZM19.112462216186522,2.3207388281220895C19.112462216186522,2.3207388281220895,25.911062216186522,2.3207388281220895,25.911062216186522,2.3207388281220895C26.12626221618652,2.3207388281220895,26.300562216186524,2.49505882812209,26.300562216186524,2.7115988281220895C26.300562216186524,2.9267788281220897,26.12626221618652,3.1011088281220895,25.911062216186522,3.1011088281220895C25.911062216186522,3.1011088281220895,19.112462216186522,3.1011088281220895,19.112462216186522,3.1011088281220895C18.897262216186526,3.1011088281220895,18.722962216186524,2.9267788281220897,18.722962216186524,2.7115988281220895C18.722962216186524,2.49505882812209,18.897262216186526,2.3207388281220895,19.112462216186522,2.3207388281220895C19.112462216186522,2.3207388281220895,19.112462216186522,2.3207388281220895,19.112462216186522,2.3207388281220895ZM22.511762216186526,46.05694882812209C21.622462216186523,46.05694882812209,20.902062216186522,45.33644882812209,20.902062216186522,44.44584882812209C20.902062216186522,43.55514882812209,21.622462216186523,42.83604882812209,22.511762216186526,42.83604882812209C23.401062216186524,42.83604882812209,24.121562216186526,43.55514882812209,24.121562216186526,44.44584882812209C24.121562216186526,45.33644882812209,23.401062216186524,46.05694882812209,22.511762216186526,46.05694882812209C22.511762216186526,46.05694882812209,22.511762216186526,46.05694882812209,22.511762216186526,46.05694882812209ZM34.11656221618652,41.70834882812209C34.11656221618652,41.70834882812209,10.906992216186524,41.70834882812209,10.906992216186524,41.70834882812209C10.906992216186524,41.70834882812209,10.906992216186524,5.10582882812209,10.906992216186524,5.10582882812209C10.906992216186524,5.10582882812209,34.11656221618652,5.10582882812209,34.11656221618652,5.10582882812209C34.11656221618652,5.10582882812209,34.11656221618652,41.70834882812209,34.11656221618652,41.70834882812209C34.11656221618652,41.70834882812209,34.11656221618652,41.70834882812209,34.11656221618652,41.70834882812209Z" fill="#29323B" fill-opacity="1"/></g><g><rect x="0.8666626214981079" y="15.600049018859863" width="18.200000762939453" height="17.33333396911621" rx="8.666666984558105" fill="#F9F9F9" fill-opacity="1"/></g><g><g><g><path d="M9.533522372665406,28.51741265930176C10.248702372665406,28.51741265930176,10.828472372665406,27.93764265930176,10.828472372665406,27.22246265930176C10.828472372665406,26.507288659301757,10.248702372665406,25.927522659301758,9.533522372665406,25.927522659301758C8.818349372665406,25.927522659301758,8.238582372665405,26.507288659301757,8.238582372665405,27.22246265930176C8.238582372665405,27.93764265930176,8.818349372665406,28.51741265930176,9.533522372665406,28.51741265930176C9.533522372665406,28.51741265930176,9.533522372665406,28.51741265930176,9.533522372665406,28.51741265930176Z" fill="#29323B" fill-opacity="1"/></g><g><path d="M14.522524169540405,22.30441941253662C14.522524169540405,22.30441941253662,14.522524169540405,21.31135941253662,14.522524169540405,21.31135941253662C14.522524169540405,19.16635941253662,14.006124169540405,16.32224941253662,9.533364169540405,16.32224941253662C5.060644169540405,16.32224941253662,4.544254169540405,19.16635941253662,4.544254169540405,21.31135941253662C4.544254169540405,21.31135941253662,4.544254169540405,22.30441941253662,4.544254169540405,22.30441941253662C2.319813169540405,22.58246941253662,1.5889241695404053,23.71057941253662,1.5889241695404053,26.48314941253662C1.5889241695404053,26.48314941253662,1.5889241695404053,27.96084941253662,1.5889241695404053,27.96084941253662C1.5889241695404053,31.218049412536622,2.5819801695404054,32.21114941253662,5.839204169540405,32.21114941253662C5.839204169540405,32.21114941253662,13.227524169540406,32.21114941253662,13.227524169540406,32.21114941253662C16.484724169540407,32.21114941253662,17.477824169540405,31.218049412536622,17.477824169540405,27.96084941253662C17.477824169540405,27.96084941253662,17.477824169540405,26.48314941253662,17.477824169540405,26.48314941253662C17.477824169540405,23.71057941253662,16.746924169540407,22.58246941253662,14.522524169540405,22.30441941253662C14.522524169540405,22.30441941253662,14.522524169540405,22.30441941253662,14.522524169540405,22.30441941253662ZM9.533364169540405,29.62124941253662C8.206644169540406,29.62124941253662,7.134144169540405,28.540849412536623,7.134144169540405,27.22204941253662C7.134144169540405,25.89530941253662,8.214594169540405,24.82280941253662,9.533364169540405,24.82280941253662C10.852144169540406,24.82280941253662,11.932624169540405,25.90324941253662,11.932624169540405,27.22204941253662C11.932624169540405,28.548749412536623,10.860094169540405,29.62124941253662,9.533364169540405,29.62124941253662C9.533364169540405,29.62124941253662,9.533364169540405,29.62124941253662,9.533364169540405,29.62124941253662ZM5.839204169540405,22.23291941253662C5.7756441695404055,22.23291941253662,5.720034169540405,22.23291941253662,5.656484169540406,22.23291941253662C5.656484169540406,22.23291941253662,5.656484169540406,21.31135941253662,5.656484169540406,21.31135941253662C5.656484169540406,18.983639412536622,6.315864169540405,17.43446941253662,9.533364169540405,17.43446941253662C12.750824169540405,17.43446941253662,13.410224169540406,18.983639412536622,13.410224169540406,21.31135941253662C13.410224169540406,21.31135941253662,13.410224169540406,22.240859412536622,13.410224169540406,22.240859412536622C13.346724169540405,22.240859412536622,13.291124169540405,22.240859412536622,13.227524169540406,22.240859412536622C13.227524169540406,22.240859412536622,5.839204169540405,22.240859412536622,5.839204169540405,22.240859412536622C5.839204169540405,22.240859412536622,5.839204169540405,22.23291941253662,5.839204169540405,22.23291941253662C5.839204169540405,22.23291941253662,5.839204169540405,22.23291941253662,5.839204169540405,22.23291941253662Z" fill="#29323B" fill-opacity="1"/></g></g></g></g></svg>