<svg xmlns="http://www.w3.org/2000/svg" xmlns:xlink="http://www.w3.org/1999/xlink" fill="none" version="1.1" width="27.690185546875" height="47.666748046875" viewBox="0 0 27.690185546875 47.666748046875"><g><g><g><path d="M24.4707,0C24.4707,0,3.219540000000001,0,3.219540000000001,0C1.4490700000000012,0,1.2096099531285963e-15,1.4477,1.2096099531285963e-15,3.21954C1.2096099531285963e-15,3.21954,1.2096099531285963e-15,44.4458,1.2096099531285963e-15,44.4458C-4.6871404856592635e-23,46.2176,1.4490700000000012,47.6667,3.219540000000001,47.6667C3.219540000000001,47.6667,24.4707,47.6667,24.4707,47.6667C26.2412,47.6667,27.6902,46.2203,27.6902,44.4471C27.6902,44.4471,27.6902,3.21954,27.6902,3.21954C27.6902,1.4477,26.2412,0,24.4707,0C24.4707,0,24.4707,0,24.4707,0ZM10.445800000000002,2.32069C10.445800000000002,2.32069,17.2444,2.32069,17.2444,2.32069C17.4596,2.32069,17.6339,2.49501,17.6339,2.71155C17.6339,2.92673,17.4596,3.10106,17.2444,3.10106C17.2444,3.10106,10.445800000000002,3.10106,10.445800000000002,3.10106C10.230600000000003,3.10106,10.056300000000002,2.92673,10.056300000000002,2.71155C10.056300000000002,2.49501,10.230600000000003,2.32069,10.445800000000002,2.32069C10.445800000000002,2.32069,10.445800000000002,2.32069,10.445800000000002,2.32069ZM13.845100000000002,46.0569C12.955800000000002,46.0569,12.235400000000002,45.3364,12.235400000000002,44.4458C12.235400000000002,43.5551,12.955800000000002,42.836,13.845100000000002,42.836C14.734400000000003,42.836,15.454900000000002,43.5551,15.454900000000002,44.4458C15.454900000000002,45.3364,14.734400000000003,46.0569,13.845100000000002,46.0569C13.845100000000002,46.0569,13.845100000000002,46.0569,13.845100000000002,46.0569ZM25.4499,41.7083C25.4499,41.7083,2.2403300000000015,41.7083,2.2403300000000015,41.7083C2.2403300000000015,41.7083,2.2403300000000015,5.10578,2.2403300000000015,5.10578C2.2403300000000015,5.10578,25.4499,5.10578,25.4499,5.10578C25.4499,5.10578,25.4499,41.7083,25.4499,41.7083C25.4499,41.7083,25.4499,41.7083,25.4499,41.7083Z" fill="#29323B" fill-opacity="1"/></g></g></g></svg>