<svg xmlns="http://www.w3.org/2000/svg" xmlns:xlink="http://www.w3.org/1999/xlink" fill="none" version="1.1" width="27.690185546875" height="47.666748046875" viewBox="0 0 27.690185546875 47.666748046875"><g><g><g><g><path d="M14.209521919250488,28.472457692871092C14.892841919250488,28.472457692871092,15.446781919250489,27.918517692871095,15.446781919250489,27.235197692871093C15.446781919250489,26.551884692871095,14.892841919250488,25.997947692871094,14.209521919250488,25.997947692871094C13.526209919250489,25.997947692871094,12.972271919250488,26.551884692871095,12.972271919250488,27.235197692871093C12.972271919250488,27.918517692871095,13.526209919250489,28.472457692871092,14.209521919250488,28.472457692871092C14.209521919250488,28.472457692871092,14.209521919250488,28.472457692871092,14.209521919250488,28.472457692871092Z" fill="#29323B" fill-opacity="1"/></g><g><path d="M18.976302206420897,22.536137458496093C18.976302206420897,22.536137458496093,18.976302206420897,21.587317458496095,18.976302206420897,21.587317458496095C18.976302206420897,19.537867458496095,18.4830022064209,16.820457458496094,14.2094422064209,16.820457458496094C9.9359722064209,16.820457458496094,9.442582206420898,19.537867458496095,9.442582206420898,21.587317458496095C9.442582206420898,21.587317458496095,9.442582206420898,22.536137458496093,9.442582206420898,22.536137458496093C7.317232206420899,22.801807458496093,6.618902206420898,23.879657458496094,6.618902206420898,26.528717458496093C6.618902206420898,26.528717458496093,6.618902206420898,27.940557458496095,6.618902206420898,27.940557458496095C6.618902206420898,31.052657458496093,7.567721206420899,32.001557458496094,10.679842206420899,32.001557458496094C10.679842206420899,32.001557458496094,17.7390022064209,32.001557458496094,17.7390022064209,32.001557458496094C20.851102206420897,32.001557458496094,21.8000022064209,31.052657458496093,21.8000022064209,27.940557458496095C21.8000022064209,27.940557458496095,21.8000022064209,26.528717458496093,21.8000022064209,26.528717458496093C21.8000022064209,23.879657458496094,21.101702206420896,22.801807458496093,18.976302206420897,22.536137458496093C18.976302206420897,22.536137458496093,18.976302206420897,22.536137458496093,18.976302206420897,22.536137458496093ZM14.2094422064209,29.527057458496095C12.941822206420898,29.527057458496095,11.917102206420898,28.494757458496096,11.917102206420898,27.234657458496095C11.917102206420898,25.967067458496096,12.949422206420898,24.942347458496094,14.2094422064209,24.942347458496094C15.469472206420898,24.942347458496094,16.501822206420897,25.974657458496093,16.501822206420897,27.234657458496095C16.501822206420897,28.502257458496096,15.477072206420898,29.527057458496095,14.2094422064209,29.527057458496095C14.2094422064209,29.527057458496095,14.2094422064209,29.527057458496095,14.2094422064209,29.527057458496095ZM10.679842206420899,22.467827458496092C10.619112206420898,22.467827458496092,10.565982206420898,22.467827458496092,10.505262206420898,22.467827458496092C10.505262206420898,22.467827458496092,10.505262206420898,21.587317458496095,10.505262206420898,21.587317458496095C10.505262206420898,19.363287458496092,11.135272206420899,17.883127458496094,14.2094422064209,17.883127458496094C17.2836022064209,17.883127458496094,17.913602206420897,19.363287458496092,17.913602206420897,21.587317458496095C17.913602206420897,21.587317458496095,17.913602206420897,22.475407458496093,17.913602206420897,22.475407458496093C17.8529022064209,22.475407458496093,17.7998022064209,22.475407458496093,17.7390022064209,22.475407458496093C17.7390022064209,22.475407458496093,10.679842206420899,22.475407458496093,10.679842206420899,22.475407458496093C10.679842206420899,22.475407458496093,10.679842206420899,22.467827458496092,10.679842206420899,22.467827458496092C10.679842206420899,22.467827458496092,10.679842206420899,22.467827458496092,10.679842206420899,22.467827458496092Z" fill="#29323B" fill-opacity="1"/></g><g transform="matrix(-1,-1.2246469849340659e-16,1.2246469849340659e-16,-1,46.63621139526367,67.03984069824219)" style="opacity:0;"></g></g></g><g><g><g><path d="M24.4707,0C24.4707,0,3.219540000000001,0,3.219540000000001,0C1.4490700000000012,0,1.2096099531285963e-15,1.4477,1.2096099531285963e-15,3.21954C1.2096099531285963e-15,3.21954,1.2096099531285963e-15,44.4458,1.2096099531285963e-15,44.4458C-4.6871404856592635e-23,46.2176,1.4490700000000012,47.6667,3.219540000000001,47.6667C3.219540000000001,47.6667,24.4707,47.6667,24.4707,47.6667C26.2412,47.6667,27.6902,46.2203,27.6902,44.4471C27.6902,44.4471,27.6902,3.21954,27.6902,3.21954C27.6902,1.4477,26.2412,0,24.4707,0C24.4707,0,24.4707,0,24.4707,0ZM10.445800000000002,2.32069C10.445800000000002,2.32069,17.2444,2.32069,17.2444,2.32069C17.4596,2.32069,17.6339,2.49501,17.6339,2.71155C17.6339,2.92673,17.4596,3.10106,17.2444,3.10106C17.2444,3.10106,10.445800000000002,3.10106,10.445800000000002,3.10106C10.230600000000003,3.10106,10.056300000000002,2.92673,10.056300000000002,2.71155C10.056300000000002,2.49501,10.230600000000003,2.32069,10.445800000000002,2.32069C10.445800000000002,2.32069,10.445800000000002,2.32069,10.445800000000002,2.32069ZM13.845100000000002,46.0569C12.955800000000002,46.0569,12.235400000000002,45.3364,12.235400000000002,44.4458C12.235400000000002,43.5551,12.955800000000002,42.836,13.845100000000002,42.836C14.734400000000003,42.836,15.454900000000002,43.5551,15.454900000000002,44.4458C15.454900000000002,45.3364,14.734400000000003,46.0569,13.845100000000002,46.0569C13.845100000000002,46.0569,13.845100000000002,46.0569,13.845100000000002,46.0569ZM25.4499,41.7083C25.4499,41.7083,2.2403300000000015,41.7083,2.2403300000000015,41.7083C2.2403300000000015,41.7083,2.2403300000000015,5.10578,2.2403300000000015,5.10578C2.2403300000000015,5.10578,25.4499,5.10578,25.4499,5.10578C25.4499,5.10578,25.4499,41.7083,25.4499,41.7083C25.4499,41.7083,25.4499,41.7083,25.4499,41.7083Z" fill="#29323B" fill-opacity="1"/></g></g></g></g></svg>