<svg xmlns="http://www.w3.org/2000/svg" xmlns:xlink="http://www.w3.org/1999/xlink" fill="none" version="1.1" width="19" height="17" viewBox="0 0 19 17"><defs><clipPath id="master_svg0_0_17648"><rect x="0" y="0" width="19" height="17" rx="0"/></clipPath></defs><g clip-path="url(#master_svg0_0_17648)"><g><path d="M18.53283304105997,6.96847C18.53283304105997,6.96847,15.340133041059971,1.53153,15.340133041059971,1.53153C14.795033041059972,0.612613,13.782833041059972,0,12.61473304105997,0C12.61473304105997,0,6.307373041059971,0,6.307373041059971,0C5.217213041059971,0,4.127053041059971,0.612613,3.581963041059971,1.53153C3.581963041059971,1.53153,0.38934404105997084,6.96847,0.38934404105997084,6.96847C-0.15573695894002915,7.88739,-0.15573695894002915,9.11261,0.38934404105997084,10.0315C0.38934404105997084,10.0315,3.581963041059971,15.4685,3.581963041059971,15.4685C4.127053041059971,16.3874,5.139343041059971,17,6.307373041059971,17C6.307373041059971,17,12.69263304105997,17,12.69263304105997,17C13.782833041059972,17,14.872933041059971,16.3874,15.41803304105997,15.4685C15.41803304105997,15.4685,18.61063304105997,10.0315,18.61063304105997,10.0315C19.07783304105997,9.03604,19.07783304105997,7.88739,18.53283304105997,6.96847C18.53283304105997,6.96847,18.53283304105997,6.96847,18.53283304105997,6.96847Z" fill="#B28BFF" fill-opacity="1"/></g><g><path d="M9.49999943069458,11.103605683288574C10.96219943069458,11.103605683288574,12.147539430694579,9.937925683288574,12.147539430694579,8.499995683288574C12.147539430694579,7.062065683288575,10.96219943069458,5.896395683288574,9.49999943069458,5.896395683288574C8.03779943069458,5.896395683288574,6.85245943069458,7.062065683288575,6.85245943069458,8.499995683288574C6.85245943069458,9.937925683288574,8.03779943069458,11.103605683288574,9.49999943069458,11.103605683288574C9.49999943069458,11.103605683288574,9.49999943069458,11.103605683288574,9.49999943069458,11.103605683288574Z" fill="#FFFFFF" fill-opacity="1"/></g></g></svg>