<svg xmlns="http://www.w3.org/2000/svg" xmlns:xlink="http://www.w3.org/1999/xlink" fill="none" version="1.1"
    width="23.581787109375" height="25.15380859375" viewBox="0 0 23.581787109375 25.15380859375">
    <g>
        <g>
            <g>
                <g>
                    <path
                        d="M19.1602,16.3108C17.7042,16.3108,16.4105,17.0183,15.6044,18.1075C15.6044,18.1075,8.66396,14.5606,8.66396,14.5606C8.7804,14.165,8.84318,13.7467,8.84318,13.3139C8.84318,12.7277,8.72827,12.168,8.52021,11.6557C8.52021,11.6557,15.7942,7.28526,15.7942,7.28526C16.6058,8.23787,17.8136,8.84318,19.1602,8.84318C21.5983,8.84318,23.5818,6.85966,23.5818,4.42159C23.5818,1.98353,21.5983,0,19.1602,0C16.7222,0,14.7386,1.98353,14.7386,4.42159C14.7386,4.9851,14.8448,5.52419,15.0378,6.02024C15.0378,6.02024,7.74565,10.4015,7.74565,10.4015C6.93463,9.47704,5.74517,8.89231,4.42159,8.89231C1.98353,8.89231,0,10.8758,0,13.3139C0,15.752,1.98353,17.7355,4.42159,17.7355C5.90145,17.7355,7.21368,17.0047,8.01669,15.885C8.01669,15.885,14.937,19.4215,14.937,19.4215C14.8081,19.8359,14.7386,20.2761,14.7386,20.7324C14.7386,23.1704,16.7222,25.1539,19.1602,25.1539C21.5983,25.1539,23.5818,23.1704,23.5818,20.7324C23.5818,18.2943,21.5983,16.3108,19.1602,16.3108C19.1602,16.3108,19.1602,16.3108,19.1602,16.3108ZM19.1602,1.47386C20.7856,1.47386,22.108,2.79621,22.108,4.42159C22.108,6.04697,20.7856,7.36932,19.1602,7.36932C17.5349,7.36932,16.2125,6.04697,16.2125,4.42159C16.2125,2.79621,17.5349,1.47386,19.1602,1.47386C19.1602,1.47386,19.1602,1.47386,19.1602,1.47386ZM4.42159,16.2616C2.79621,16.2616,1.47386,14.9393,1.47386,13.3139C1.47386,11.6885,2.79621,10.3662,4.42159,10.3662C6.04697,10.3662,7.36932,11.6885,7.36932,13.3139C7.36932,14.9393,6.04697,16.2616,4.42159,16.2616C4.42159,16.2616,4.42159,16.2616,4.42159,16.2616ZM19.1602,23.6801C17.5349,23.6801,16.2125,22.3577,16.2125,20.7324C16.2125,19.107,17.5349,17.7846,19.1602,17.7846C20.7856,17.7846,22.108,19.107,22.108,20.7324C22.108,22.3577,20.7856,23.6801,19.1602,23.6801C19.1602,23.6801,19.1602,23.6801,19.1602,23.6801Z"
                        fill="currentColor" fill-opacity="1" />
                </g>
            </g>
        </g>
    </g>
</svg>