<svg xmlns="http://www.w3.org/2000/svg" xmlns:xlink="http://www.w3.org/1999/xlink" fill="none" version="1.1" width="37.5" height="37.5" viewBox="0 0 37.5 37.5"><defs><linearGradient x1="0.14701130986213684" y1="-0.640625" x2="1.4491114616394043" y2="1.6510426998138428" id="master_svg0_0_1371"><stop offset="2.857142873108387%" stop-color="#6747E7" stop-opacity="1"/><stop offset="100%" stop-color="#00FFF0" stop-opacity="1"/></linearGradient></defs><g><path d="M18.75,0C8.41875,0,0,8.41875,0,18.75C0,29.0813,8.41875,37.5,18.75,37.5C29.0813,37.5,37.5,29.0813,37.5,18.75C37.5,8.41875,29.0813,0,18.75,0C18.75,0,18.75,0,18.75,0ZM26.9062,25.4437C26.6438,25.8937,26.175,26.1375,25.6875,26.1375C25.4438,26.1375,25.2,26.0812,24.975,25.9312C24.975,25.9312,19.1625,22.4625,19.1625,22.4625C17.7188,21.6,16.65,19.7062,16.65,18.0375C16.65,18.0375,16.65,10.35,16.65,10.35C16.65,9.58125,17.2875,8.94375,18.0562,8.94375C18.825,8.94375,19.4625,9.58125,19.4625,10.35C19.4625,10.35,19.4625,18.0375,19.4625,18.0375C19.4625,18.7125,20.025,19.7062,20.6062,20.0437C20.6062,20.0437,26.4188,23.5125,26.4188,23.5125C27.0938,23.9062,27.3188,24.7687,26.9062,25.4437C26.9062,25.4437,26.9062,25.4437,26.9062,25.4437Z" fill="url(#master_svg0_0_1371)" fill-opacity="1"/></g></svg>