<svg xmlns="http://www.w3.org/2000/svg" xmlns:xlink="http://www.w3.org/1999/xlink" fill="none" version="1.1" width="31"
    height="37.5" viewBox="0 0 31 37.5">
    <g>
        <g>
            <path
                d="M1.23473,27.6958C2.43742,30.1212,4.32722,32.1553,6.21709,34.1113C8.38397,35.8328,10.8973,36.8332,13.5843,37.2577C14.3993,37.4574,15.2073,37.5274,15.9917,37.4862C17.572,37.5424,19.1923,37.4255,20.8206,37.1624C23.8272,36.2236,26.5761,34.5024,28.2941,32.0771C29.7544,30.0429,30.4416,27.5394,30.7853,25.114C31.043,22.9233,31.1288,20.6545,30.6993,18.4639C30.2699,16.2732,29.4108,14.552,27.8646,12.8308C28.294,14.3173,28.0363,15.882,27.5209,17.3686C27.0055,18.855,26.1465,20.1851,25.3733,21.5151C25.2874,18.9333,23.9129,16.5862,22.4526,14.3173C20.9923,12.0485,19.3602,9.85783,18.587,7.35428C17.8139,4.85066,18.0716,1.87768,20.0473,0C16.0959,1.33,12.3161,3.28602,9.56728,6.25899C6.81844,9.23196,5.44397,13.3003,6.30302,17.0557C4.84271,15.5691,4.06959,13.535,4.24137,11.5791C2.26556,13.8479,0.891177,16.508,0.289834,19.3245C-0.31151,22.141,0.032127,25.114,1.23473,27.6958ZM22.7985,25.917C23.1364,29.1143,22.2775,31.4543,20.6487,32.7816C21.5078,30.9039,20.9064,28.7133,19.8756,26.8356C18.8448,25.0362,17.3845,23.3932,16.2677,21.672C15.151,19.8725,14.292,17.8383,14.8074,15.8042C12.7458,17.2125,11.2854,19.3248,10.6841,21.5937C10.0828,23.8625,10.4264,26.3662,11.5432,28.4786C10.2546,27.618,9.30971,26.2097,9.22379,24.7232C7.84932,26.2097,6.99036,28.1656,7.0762,30.1215C7.07628,33.1728,9.7392,35.911,12.7458,37.0063C13.0257,37.1058,13.3054,37.1893,13.5843,37.2577C14.3732,37.3823,15.1771,37.4572,15.9917,37.4862C21.6954,37.1867,26.1455,31.0066,22.8822,26.0532C22.8822,25.9823,22.8118,25.9756,22.7985,25.917ZM22.7985,25.917C22.7978,25.9102,22.797,25.9035,22.7963,25.8967C22.7963,25.9041,22.7971,25.9108,22.7985,25.917Z"
                fill-rule="evenodd" fill="#FFFFFF" fill-opacity="1" />
        </g>
    </g>
</svg>